<?xml version="1.0" encoding="UTF-8"?>
<svg version="1.1" xmlns="http://www.w3.org/2000/svg" width="1230" height="484">
<path d="M0 0 C19.51125 -0.04125 39.0225 -0.0825 59.125 -0.125 C68.30014404 -0.15231201 68.30014404 -0.15231201 77.66064453 -0.18017578 C85.24194336 -0.18920898 85.24194336 -0.18920898 88.81271362 -0.19088745 C91.25925427 -0.19391988 93.7057923 -0.20087137 96.15231323 -0.21115112 C143.69760746 -0.40060194 189.06124571 7.33514837 225 41 C225.9796875 41.85464844 226.959375 42.70929688 227.96875 43.58984375 C237.02431305 51.50898308 244.38694687 60.26198532 250 71 C254.56565281 69.75482196 256.94641591 67.24081352 260.11328125 63.9296875 C263.80976029 60.14902363 267.89523471 56.7881949 271.921875 53.3671875 C274.32967645 51.3195273 276.70154865 49.29845135 278.9375 47.0625 C281.42393341 44.57606659 284.06159319 42.30219003 286.71484375 39.99609375 C294.49769585 33.27584048 294.49769585 33.27584048 301.8125 26.0625 C305.77137828 22.32984334 310.0831346 21.71193414 315.359375 21.0703125 C323.07800151 20.04049053 330.63903554 18.50647854 338.25 16.875 C340.81716589 16.32810685 343.38501884 15.78466986 345.953125 15.2421875 C347.62616699 14.88423096 347.62616699 14.88423096 349.33300781 14.51904297 C352 14 352 14 354 14 C353.32741836 19.11324113 351.86537231 23.71502686 350.1875 28.5625 C349.64067942 30.16884665 349.09511334 31.77562088 348.55078125 33.3828125 C348.28475098 34.16817383 348.0187207 34.95353516 347.74462891 35.76269531 C346.73224596 38.80449116 345.79885625 41.86779437 344.875 44.9375 C344.55402344 45.96230469 344.23304688 46.98710938 343.90234375 48.04296875 C343.30796907 49.99076802 342.7571155 51.95246331 342.25390625 53.92578125 C339.8240435 62.33147871 334.89955795 65.9602391 328 71 C326.6506644 72.1269451 325.31562538 73.27137751 324 74.4375 C323.37222656 74.99179688 322.74445313 75.54609375 322.09765625 76.1171875 C319.53256803 78.41955719 316.98480161 80.74046996 314.4375 83.0625 C302.92543435 93.53816084 302.92543435 93.53816084 299.94140625 95.02734375 C297.73556948 96.13248129 296.31681971 97.60421496 294.6171875 99.3671875 C292.4675199 101.53762483 290.24494368 103.61575672 288 105.6875 C286.7625 106.83798828 286.7625 106.83798828 285.5 108.01171875 C283.04624155 109.96322351 280.95630699 111.01280463 278 112 C281.64049839 103.94889778 289.93663985 97.97146921 297 93 C297.66 93 298.32 93 299 93 C299.26192139 92.40832031 299.52384277 91.81664062 299.79370117 91.20703125 C301.06541237 88.88032224 302.35799859 87.47779759 304.30078125 85.6875 C305.27241211 84.78644531 305.27241211 84.78644531 306.26367188 83.8671875 C306.93978516 83.25101562 307.61589844 82.63484375 308.3125 82 C308.97701172 81.38382812 309.64152344 80.76765625 310.32617188 80.1328125 C320.23311762 71 320.23311762 71 323 71 C323.07089844 69.948125 323.14179688 68.89625 323.21484375 67.8125 C323.99402804 61.57902568 326.37386268 55.8520073 328.5625 50 C329.19961914 48.26556641 329.19961914 48.26556641 329.84960938 46.49609375 C330.89220192 43.6611792 331.94248892 40.82937584 333 38 C330.13366172 39.3023278 328.70934086 40.29774839 326.4375 42.625 C324 45 324 45 321 45 C320.79890625 45.5465625 320.5978125 46.093125 320.390625 46.65625 C318.43817967 49.94688819 315.66458747 52.0953768 312.75 54.5 C311.47509723 55.57142043 310.2003623 56.64304061 308.92578125 57.71484375 C308.27303223 58.25995605 307.6202832 58.80506836 306.94775391 59.36669922 C303.92096687 61.90482973 300.93080901 64.4850688 297.9375 67.0625 C293.941899 70.4932866 289.93145298 73.90526871 285.90234375 77.29663086 C280.54552547 81.80576114 275.28215236 86.39040323 270.12109375 91.125 C264.60625 96 264.60625 96 262 96 C262.32613281 96.95777344 262.65226562 97.91554688 262.98828125 98.90234375 C274.98801377 135.04855181 274.03108454 176.75557986 256.88330078 211.24609375 C254.7079962 215.3532738 252.37557414 219.35792112 249.98095703 223.34033203 C248.68033824 225.54083142 247.49951508 227.79915613 246.3125 230.0625 C244.0781128 234.09681023 241.42218973 237.87888268 238 241 C237.34 241 236.68 241 236 241 C235.76925781 241.55816406 235.53851563 242.11632812 235.30078125 242.69140625 C233.65466491 245.61289201 231.58926868 247.60054666 229.1875 249.9375 C228.33542969 250.77152344 227.48335937 251.60554687 226.60546875 252.46484375 C225.31576172 253.71974609 225.31576172 253.71974609 224 255 C223.12472656 255.87785156 222.24945313 256.75570313 221.34765625 257.66015625 C214.85843091 264.12778683 207.68156756 268.91944377 199 272 C199 272.66 199 273.32 199 274 C172.62318154 287.09122546 147.45919355 294.20308975 117.83935547 294.11352539 C116.56017746 294.11367142 115.28099945 294.11381744 113.96305847 294.1139679 C110.48647441 294.11425255 107.00992548 294.10840979 103.53334951 294.10139394 C99.88853735 294.09510486 96.24372422 294.09455223 92.59890747 294.09336853 C85.71082717 294.0902715 78.82276291 294.08208023 71.93468964 294.07201904 C62.61701278 294.05870703 53.29933148 294.05334484 43.98164749 294.04751682 C29.32108633 294.0381391 14.66055901 294.01820936 0 294 C0 274.53 0 255.06 0 235 C13.1484375 234.94392578 13.1484375 234.94392578 26.5625 234.88671875 C32.85101011 234.85255703 39.13948887 234.81655771 45.42797089 234.77792263 C53.5567813 234.72822373 61.68554034 234.68274016 69.81445312 234.65356445 C76.25455703 234.63043611 82.69451213 234.59687604 89.13449764 234.55129844 C92.53769497 234.52756385 95.94074675 234.50870689 99.34402466 234.50238609 C122.26556649 234.44399322 142.7123229 233.1774028 162.7578125 220.97265625 C164.61602496 219.84205711 166.49677763 218.7436244 168.4296875 217.74609375 C183.50442847 209.3804408 193.51668588 188.80133735 198.5 172.9375 C200.51309883 164.91118108 200.3925773 156.59988322 200.4375 148.375 C200.4478125 147.0768335 200.458125 145.77866699 200.46875 144.44116211 C200.36165192 132.69681622 198.69031653 121.39307489 193.6875 110.6875 C193.3869873 110.02016846 193.08647461 109.35283691 192.77685547 108.6652832 C190.6420926 104.04968581 188.18098809 99.80514155 185.1640625 95.69921875 C184 94 184 94 183 91 C182.01 90.67 181.02 90.34 180 90 C178.8515625 88.46875 178.8515625 88.46875 177.625 86.5 C166.90193614 71.76239007 146.28203626 65.70994188 129.18161011 62.46522522 C125.98919772 61.99842046 122.94397215 61.84150997 119.71923828 61.79467773 C118.48149658 61.77449585 117.24375488 61.75431396 115.96850586 61.73352051 C114.68210205 61.71704468 113.39569824 61.70056885 112.0703125 61.68359375 C110.87720459 61.66494263 109.68409668 61.6462915 108.45483398 61.6270752 C104.01162902 61.55894173 99.56830603 61.49868838 95.125 61.4375 C85.18375 61.293125 75.2425 61.14875 65 61 C65 94.33 65 127.66 65 162 C43.55 162 22.1 162 0 162 C0 108.54 0 55.08 0 0 Z M312.6171875 34.23388672 C311.29450569 34.49356028 309.96990509 34.74365322 308.64355469 34.98388672 C300.38349632 36.48104797 294.8565774 37.95109183 289 44 C287.34276843 45.01555959 285.67654088 46.01664429 284 47 C281.97258189 48.59066049 279.97387047 50.21835871 278 51.875 C276.989375 52.71804687 275.97875 53.56109375 274.9375 54.4296875 C272.16822245 56.85280535 269.58348535 59.38189508 267 62 C262.25891337 66.3362298 257.17958921 70.20611907 252 74 C253.44323469 78.73789165 255.37226733 82.98858151 257.625 87.375 C258.11226563 88.33599609 258.11226563 88.33599609 258.609375 89.31640625 C259.40257407 90.87947501 260.20077031 92.44000622 261 94 C266.37559505 90.31086614 270.89749656 86.20733361 275.4375 81.5625 C279.71784049 77.18937579 284.01440963 73.19918075 288.94140625 69.546875 C293.38308593 66.20929406 297.51121098 62.48878902 301.4375 58.5625 C307.46562741 52.53437259 313.97159828 47.13283545 320.73828125 41.95703125 C323.18230629 39.84225311 325.04009605 37.5626271 327 35 C327.98230498 33.9826127 328.97469597 32.97403883 330 32 C324.05575933 31.80403602 318.4231085 33.07643162 312.6171875 34.23388672 Z " fill="#FEFEFE" transform="translate(48,52)"/>
<path d="M0 0 C19.8 0 39.6 0 60 0 C65.61535364 8.98456583 65.61535364 8.98456583 67.875 13.22265625 C68.62982666 14.6298291 68.62982666 14.6298291 69.39990234 16.06542969 C69.92793457 17.05446289 70.4559668 18.04349609 71 19.0625 C75.36300926 27.18175064 79.8065419 35.24463623 84.375 43.25 C89.56127457 52.35039946 94.53927015 61.55321182 99.4574585 70.8001709 C103.69590831 78.76407335 108.02629895 86.66551367 112.5 94.5 C117.64828836 103.51584489 122.58330129 112.63572806 127.45800781 121.80126953 C131.69627939 129.76480434 136.02657745 137.66582661 140.5 145.5 C145.37030235 154.03074601 150.06803154 162.64432331 154.6875 171.3125 C159.88677763 181.06686957 165.16461722 190.76903398 170.55957031 200.41650391 C173.65989608 205.97712208 176.73564502 211.55137205 179.8125 217.125 C180.1568811 217.74859406 180.50126221 218.37218811 180.8560791 219.01467896 C185.51015424 227.44491503 190.1189804 235.89800584 194.6875 244.375 C198.99412227 252.36443481 203.3942765 260.29439452 207.875 268.1875 C215.18048181 281.05942481 215.18048181 281.05942481 218.3125 286.8125 C218.84488281 287.78832031 219.37726563 288.76414062 219.92578125 289.76953125 C221 292 221 292 221 294 C212.36827731 294.20883455 203.73742791 294.36859087 195.10372734 294.46630955 C191.09428364 294.51321936 187.08657179 294.57679843 183.078125 294.67895508 C179.20706407 294.77698922 175.33766459 294.83060435 171.46545792 294.85389519 C169.99087484 294.87048376 168.51637959 294.9028826 167.04250717 294.95157051 C155.51771126 295.31702322 155.51771126 295.31702322 151.82272339 292.11062622 C150.25306637 289.80082519 149.09510532 287.5643193 148 285 C147.4745459 284.10635742 146.9490918 283.21271484 146.40771484 282.29199219 C146.01277832 281.55110352 145.6178418 280.81021484 145.2109375 280.046875 C144.75082275 279.1916626 144.29070801 278.3364502 143.81665039 277.45532227 C143.34090576 276.56256592 142.86516113 275.66980957 142.375 274.75 C138.35897018 267.30153049 134.27821024 259.89989974 130.0625 252.5625 C129.3202417 251.27049683 129.3202417 251.27049683 128.56298828 249.95239258 C128.06395996 249.08380615 127.56493164 248.21521973 127.05078125 247.3203125 C123.92245807 241.87512203 120.83410512 236.40782293 117.75 230.9375 C112.54922759 221.71744868 107.30119236 212.52494186 102.03973389 203.33944702 C97.26715996 195.00446213 92.54971774 186.64034989 87.875 178.25 C82.63101321 168.83944505 77.26207733 159.50880523 71.79248047 150.22753906 C71.25252441 149.3094043 70.71256836 148.39126953 70.15625 147.4453125 C69.45725586 146.26219482 69.45725586 146.26219482 68.74414062 145.05517578 C66.09214318 140.4097256 63.56144704 135.69598625 61 131 C60.67 184.46 60.34 237.92 60 293 C40.2 293 20.4 293 0 293 C0 196.31 0 99.62 0 0 Z " fill="#0081C0" transform="translate(955,57)"/>
<path d="M0 0 C10.06590997 -0.2087139 20.13130379 -0.36853488 30.19893837 -0.46630955 C34.87412669 -0.51324289 39.54783282 -0.5768726 44.22216797 -0.67895508 C48.73510615 -0.77689373 53.24662102 -0.83058665 57.76054001 -0.85389519 C59.48070056 -0.87049985 61.20078482 -0.90292864 62.92033768 -0.95157051 C76.40283654 -1.3177177 76.40283654 -1.3177177 80.36961365 1.95501709 C81.94384781 4.26773108 83.01950369 6.38762771 84 9 C86.47799624 14.03243453 89.26421198 18.2050788 92.6875 22.625 C97.73705541 29.25187826 102.45193434 36.01738155 107 43 C109.08273895 46.13963837 111.17835485 49.27068638 113.27197266 52.40307617 C115.30984357 55.45514146 117.33874397 58.51216131 119.34375 61.5859375 C120.0553125 62.67132813 120.766875 63.75671875 121.5 64.875 C122.1290625 65.84179688 122.758125 66.80859375 123.40625 67.8046875 C124.81453878 70.09938141 124.81453878 70.09938141 127 71 C128.73606819 73.68301448 130.25616873 76.46243446 131.8046875 79.2578125 C133.90277902 82.92491159 136.26516346 86.3369925 138.75 89.75 C139.18538086 90.35416748 139.62076172 90.95833496 140.06933594 91.58081055 C142.779592 95.33686117 145.51572871 99.07390983 148.25 102.8125 C150.70099689 106.18511157 153.13399931 109.56708778 155.5 113 C155.9846875 113.70125 156.469375 114.4025 156.96875 115.125 C158 117 158 117 158 120 C158.66 120 159.32 120 160 120 C162.78676504 123.39841118 165.16106611 127.11319721 167.625 130.75 C168.33140625 131.76578125 169.0378125 132.7815625 169.765625 133.828125 C170.43335938 134.8078125 171.10109375 135.7875 171.7890625 136.796875 C172.71259521 138.14797363 172.71259521 138.14797363 173.65478516 139.52636719 C175 142 175 142 175 146 C173.96191406 147.93530273 173.96191406 147.93530273 172.515625 149.93359375 C171.99226562 150.66513672 171.46890625 151.39667969 170.9296875 152.15039062 C170.37539063 152.90513672 169.82109375 153.65988281 169.25 154.4375 C168.71117187 155.18837891 168.17234375 155.93925781 167.6171875 156.71289062 C165.43320772 159.74116503 163.23435101 162.71561419 160.859375 165.59765625 C159.02180478 167.97182786 157.58766096 170.4338007 156.13378906 173.05517578 C153.93398396 176.82857101 151.38858585 180.36894199 148.875 183.9375 C148.06869141 185.10635742 148.06869141 185.10635742 147.24609375 186.29882812 C146.47072266 187.40194336 146.47072266 187.40194336 145.6796875 188.52734375 C145.21288574 189.19499756 144.74608398 189.86265137 144.26513672 190.55053711 C143.8476416 191.02885986 143.43014648 191.50718262 143 192 C142.34 192 141.68 192 141 192 C140.773125 192.680625 140.54625 193.36125 140.3125 194.0625 C138.940799 197.13249748 137.26971724 199.50603329 135.27734375 202.19140625 C133.81408698 204.19030931 133.81408698 204.19030931 132.1875 207.3125 C130.5377428 210.28468162 128.59672546 212.81307556 126.4375 215.4375 C121.36553454 221.64596143 116.92898267 228.24998718 112.43652344 234.88134766 C96.59083273 258.25131774 96.59083273 258.25131774 88.1875 268.8125 C85.62464864 272.07221656 83.82697339 275.26992933 82 279 C79.80105297 282.43035736 77.58531076 285.84778978 75 289 C74.34 289 73.68 289 73 289 C72.34 290.65 71.68 292.3 71 294 C46.25 294 21.5 294 -4 294 C-1.75178855 288.37947138 -1.75178855 288.37947138 0.1796875 285.64453125 C0.82200317 284.72462402 0.82200317 284.72462402 1.47729492 283.78613281 C2.16915894 282.80918457 2.16915894 282.80918457 2.875 281.8125 C3.86965471 280.38753132 4.86309925 278.96171733 5.85546875 277.53515625 C6.37157715 276.79410645 6.88768555 276.05305664 7.41943359 275.28955078 C10.05402888 271.47317225 12.6210369 267.61238775 15.1875 263.75 C15.68862305 262.998396 16.18974609 262.24679199 16.70605469 261.47241211 C18.97913776 258.05942496 21.2394517 254.63961039 23.46484375 251.1953125 C24.17769531 250.09960938 24.89054688 249.00390625 25.625 247.875 C26.23601563 246.92367187 26.84703125 245.97234375 27.4765625 244.9921875 C27.97929688 244.33476562 28.48203125 243.67734375 29 243 C29.66 243 30.32 243 31 243 C31.28617188 242.4225 31.57234375 241.845 31.8671875 241.25 C35.93830943 233.16390954 40.48596927 225.19380168 46 218 C46.66 218 47.32 218 48 218 C48.23460937 217.31550781 48.46921875 216.63101563 48.7109375 215.92578125 C50.27873129 212.36736443 52.38545574 209.34263218 54.625 206.1875 C60.41803879 197.90433105 66.02063829 189.50053366 71.60400391 181.07495117 C72.26062012 180.08599854 72.91723633 179.0970459 73.59375 178.078125 C74.17833984 177.19543945 74.76292969 176.31275391 75.36523438 175.40332031 C78.52677427 170.75544117 78.52677427 170.75544117 80 169 C80.66 169 81.32 169 82 169 C82.41185547 167.90558594 82.41185547 167.90558594 82.83203125 166.7890625 C83.94060345 164.14183657 85.19419538 161.82156483 86.6875 159.375 C87.20957031 158.5190625 87.73164062 157.663125 88.26953125 156.78125 C91.14254283 152.16367835 94.0600472 147.57519281 97 143 C96.34 143 95.68 143 95 143 C93.35119251 140.57049572 91.8155636 138.14291406 90.3125 135.625 C86.45630991 129.22433172 82.32525559 123.09310675 78 117 C62.33915088 94.70163866 62.33915088 94.70163866 57 86.25 C53.24267681 80.30685761 49.17591554 74.65328444 45 69 C41.61010287 64.3344867 38.31677029 59.7329327 35.625 54.625 C33.68036718 51.00634669 31.43593542 47.82347406 28.9375 44.5625 C23.42648665 37.36705732 18.47818446 29.82982874 13.49755859 22.26171875 C12.03994995 20.06033523 10.56494742 17.87189737 9.08203125 15.6875 C8.62497803 15.01178955 8.1679248 14.3360791 7.69702148 13.63989258 C6.841876 12.37699352 5.98352381 11.11625734 5.12133789 9.8581543 C2.96630254 6.66119359 1.36860918 3.59364631 0 0 Z " fill="#0081C0" transform="translate(603,52)"/>
<path d="M0 0 C0.79664063 0.41121094 1.59328125 0.82242188 2.4140625 1.24609375 C8.56800129 4.67631039 13.39173431 8.68506722 18 14 C18.54527344 14.58523437 19.09054687 15.17046875 19.65234375 15.7734375 C33.44978953 32.97635972 31.29272539 64.36622647 31.125 85.0625 C31.08375 92.301875 31.0425 99.54125 31 107 C3.94 107 -23.12 107 -51 107 C-50.896875 115.641875 -50.79375 124.28375 -50.6875 133.1875 C-50.66260498 135.88832764 -50.63770996 138.58915527 -50.61206055 141.37182617 C-50.57972371 143.55389044 -50.54634349 145.73593959 -50.51171875 147.91796875 C-50.50547485 149.01741821 -50.49923096 150.11686768 -50.49279785 151.24963379 C-50.33728388 159.78782219 -50.08611889 170.52571521 -44.75 177.625 C-38.7564053 182.80128633 -33.64971382 183.57699141 -25.875 183.34375 C-21.48883527 182.81931726 -19.45119505 181.80409598 -16 179 C-10.67185398 171.51179478 -9.71860458 163.40701126 -9.375 154.4375 C-9.33632813 153.62603516 -9.29765625 152.81457031 -9.2578125 151.97851562 C-9.09174268 148.30422093 -8.98841069 144.65054041 -9.0390625 140.97265625 C-9 138 -9 138 -8 137 C-5.1156618 136.91134792 -2.25537842 136.88478704 0.62890625 136.90234375 C1.92525246 136.90446617 1.92525246 136.90446617 3.24778748 136.90663147 C6.01939292 136.91224761 8.7909188 136.92480281 11.5625 136.9375 C13.4368478 136.94251292 15.31119685 136.94707619 17.18554688 136.95117188 C21.79039544 136.96222228 26.39518421 136.9794977 31 137 C31.46043874 157.67073171 31.15664277 181.5932968 16.78515625 198.17578125 C4.74948404 210.47481609 -8.99949329 214.0519442 -25.87646484 214.47705078 C-59.69898139 214.69891516 -59.69898139 214.69891516 -71 204 C-72.12921875 202.95199219 -72.12921875 202.95199219 -73.28125 201.8828125 C-92.45689392 182.38757452 -93.3373208 152.977253 -93.265625 127.21875 C-93.26697818 125.4677322 -93.26892409 123.71671478 -93.27142334 121.96569824 C-93.27434396 118.32523971 -93.27017705 114.68488043 -93.26074219 111.04443359 C-93.24934958 106.42910607 -93.2559257 101.81401135 -93.26788712 97.19869232 C-93.27518937 93.59167801 -93.27277988 89.98471692 -93.26763153 86.37770081 C-93.26631802 84.678024 -93.2678598 82.978342 -93.27259064 81.27867126 C-93.32685495 56.31880549 -91.34441964 29.38704758 -74 10 C-73.2575 9.0925 -72.515 8.185 -71.75 7.25 C-54.49084664 -6.87112548 -20.11734112 -10.48308704 0 0 Z M-46.92260742 34.36181641 C-54.92099722 46.5234288 -51.16249058 71.0007534 -51 84 C-37.14 84 -23.28 84 -9 84 C-5.56692856 70.26771425 -6.83203519 47.74167892 -12.9453125 35.03515625 C-16.18723077 29.81490202 -20.1315266 27.46711835 -26 26 C-34.56968846 25.15707982 -41.47566991 27.42896863 -46.92260742 34.36181641 Z " fill="#FFFFFF" transform="translate(443,131)"/>
<path d="M0 0 C13.53 0 27.06 0 41 0 C41 98.01 41 196.02 41 297 C27.47 297 13.94 297 0 297 C0 198.99 0 100.98 0 0 Z " fill="#FFFFFF" transform="translate(512,45)"/>
<path d="M0 0 C19.8 0 39.6 0 60 0 C60 48.84 60 97.68 60 148 C40.2 148 20.4 148 0 148 C0 99.16 0 50.32 0 0 Z " fill="#7BD028" transform="translate(1115,57)"/>
<path d="M0 0 C5.80205656 5.64524422 5.80205656 5.64524422 8 9 C8 9.66 8 10.32 8 11 C8.66 11 9.32 11 10 11 C11.34160786 12.80361851 12.59846897 14.67065433 13.8125 16.5625 C16.07943129 20.0573524 18.3335361 23.52688717 20.8125 26.875 C23 30 23 30 24.3125 32.75 C26.27142401 36.52274253 28.62804927 39.74499227 31.1875 43.125 C36.02450045 49.61328821 40.57138497 56.22451359 45 63 C46.47698993 65.22109371 47.95904741 67.43873759 49.44140625 69.65625 C50.60206739 71.4016051 51.75439625 73.15250679 52.90234375 74.90625 C56.51886192 80.40391294 60.24915604 85.69469429 64.33984375 90.84765625 C67.89310243 95.45435162 71.05072422 100.29130359 73.875 105.375 C76.16102621 109.47667665 78.98341735 113.16765975 81.76171875 116.9453125 C84.20325909 120.27739722 86.61794187 123.62522022 89 127 C89.763125 128.0725 90.52625 129.145 91.3125 130.25 C93 133 93 133 93 136 C83.22950995 136.23220447 73.45968109 136.40963195 63.68698883 136.51812172 C59.1484041 136.57020682 54.61171333 136.64078317 50.07421875 136.75439453 C45.69090841 136.86345228 41.3094132 136.92292144 36.92485046 136.94877243 C35.25651982 136.96718068 33.58828325 137.00313282 31.92073059 137.05730057 C18.87292956 137.46408814 18.87292956 137.46408814 14.2407074 133.84303284 C12.19251879 131.31698615 10.57452804 128.83943776 9 126 C8.10693789 124.70396848 7.20464119 123.41414 6.28515625 122.13671875 C5.53860916 120.99064731 4.79751105 119.84100382 4.0625 118.6875 C3.67771484 118.10677734 3.29292969 117.52605469 2.89648438 116.92773438 C0.78923571 113.6502035 -0.5408187 110.88481959 -1 107 C-1.66 107 -2.32 107 -3 107 C-4.35693359 105.25927734 -4.35693359 105.25927734 -5.8984375 102.8359375 C-6.46046875 101.96066406 -7.0225 101.08539063 -7.6015625 100.18359375 C-8.18679688 99.25675781 -8.77203125 98.32992187 -9.375 97.375 C-10.52843747 95.57017932 -11.68207848 93.7654887 -12.8359375 91.9609375 C-13.37959961 91.10338867 -13.92326172 90.24583984 -14.48339844 89.36230469 C-15.76006145 87.37373559 -17.07227377 85.42126951 -18.4140625 83.4765625 C-20 81 -20 81 -20 79 C-20.66 79 -21.32 79 -22 79 C-22.35191406 78.32195312 -22.70382812 77.64390625 -23.06640625 76.9453125 C-26.61025061 70.2647495 -30.56953238 64.1204398 -35 58 C-37 55 -37 55 -36.93359375 52.76953125 C-35.62992046 48.90214897 -33.46392016 45.95787724 -31.0625 42.6875 C-30.60681641 42.04232422 -30.15113281 41.39714844 -29.68164062 40.73242188 C-28.510905 39.11259001 -27.26102508 37.55057825 -26 36 C-25.34 36 -24.68 36 -24 36 C-23.89059082 35.25975586 -23.78118164 34.51951172 -23.66845703 33.75683594 C-22.96505829 30.85589417 -22.06372569 29.27457711 -20.3046875 26.890625 C-19.7566748 26.13990723 -19.20866211 25.38918945 -18.64404297 24.61572266 C-18.06025879 23.83503418 -17.47647461 23.0543457 -16.875 22.25 C-16.28477051 21.44739746 -15.69454102 20.64479492 -15.08642578 19.81787109 C-11.58164817 15.06862249 -8.0383926 10.348857 -4.3671875 5.7265625 C-2.87591336 3.84329629 -1.4344658 1.92676767 0 0 Z " fill="#7ACF27" transform="translate(787,210)"/>
<path d="M0 0 C1.67290822 0.0167988 3.34586091 0.02960398 5.01882935 0.03858948 C9.40945991 0.07285623 13.7973849 0.16116924 18.18695068 0.26092529 C22.67113644 0.35321004 27.15576213 0.39414314 31.640625 0.43945312 C40.43092536 0.53580334 49.21903184 0.68927911 58.0078125 0.87890625 C57.30513294 3.93218948 56.44190696 6.0133258 54.64453125 8.59375 C54.16951172 9.28017578 53.69449219 9.96660156 53.20507812 10.67382812 C52.70685547 11.38087891 52.20863281 12.08792969 51.6953125 12.81640625 C51.20869141 13.51958984 50.72207031 14.22277344 50.22070312 14.94726562 C48.15364261 17.91570919 46.06484513 20.80819384 43.79296875 23.625 C42.14965544 25.6998179 40.95510074 27.65400471 39.7578125 30.00390625 C36.68712187 35.67576295 32.86531681 40.72361703 29.0078125 45.87890625 C24.40477183 52.05571379 20.05292049 58.30696349 15.93920898 64.82104492 C12.00162352 70.995159 7.81875061 76.99644856 3.6328125 83.00390625 C2.93027344 84.01227539 2.22773437 85.02064453 1.50390625 86.05957031 C-3.6113557 93.37874832 -3.6113557 93.37874832 -5.59106445 95.97875977 C-7.24537166 98.22226438 -8.55376897 100.61781644 -9.91650391 103.04541016 C-11.65870501 106.01498126 -13.65796153 108.78263896 -15.6796875 111.56640625 C-16.10813965 112.16146973 -16.5365918 112.7565332 -16.97802734 113.36962891 C-21.23785637 119.26460698 -25.59796217 125.08362357 -29.9921875 130.87890625 C-36.73859382 124.65145426 -41.69665664 116.54992634 -46.9296875 109.06640625 C-47.54650391 108.1856543 -48.16332031 107.30490234 -48.79882812 106.39746094 C-52.52048402 101.05914923 -56.11884701 95.68566132 -59.51953125 90.13671875 C-61.48028374 87.13057833 -63.74671721 84.41866563 -66.12109375 81.73046875 C-66.9921875 79.87890625 -66.9921875 79.87890625 -66.34765625 77.44140625 C-64.98167403 74.85903064 -63.48303498 72.59856119 -61.7421875 70.25390625 C-58.54434271 65.79952786 -55.91211732 61.21087432 -53.33984375 56.375 C-51.71891026 53.37274928 -50.05133842 50.59992711 -47.9921875 47.87890625 C-47.3321875 47.87890625 -46.6721875 47.87890625 -45.9921875 47.87890625 C-45.7653125 47.21503906 -45.5384375 46.55117187 -45.3046875 45.8671875 C-43.59570159 41.97619279 -41.33754671 38.60036561 -38.9921875 35.06640625 C-37.99759187 33.55020413 -37.00412888 32.03325851 -36.01171875 30.515625 C-35.50850098 29.74653809 -35.0052832 28.97745117 -34.48681641 28.18505859 C-31.77016713 23.99337793 -29.14177249 19.74680817 -26.51757812 15.49682617 C-25.77729691 14.30275765 -25.02043923 13.118754 -24.24482727 11.94732666 C-22.93003901 9.8960758 -22.93003901 9.8960758 -22.04399109 7.5717926 C-17.54213664 -1.81278537 -9.03062973 -0.26587277 0 0 Z " fill="#7ACF27" transform="translate(817.9921875,51.12109375)"/>
<path d="M0 0 C-0.67258164 5.11324113 -2.13462769 9.71502686 -3.8125 14.5625 C-4.35932058 16.16884665 -4.90488666 17.77562088 -5.44921875 19.3828125 C-5.71524902 20.16817383 -5.9812793 20.95353516 -6.25537109 21.76269531 C-7.26775404 24.80449116 -8.20114375 27.86779437 -9.125 30.9375 C-9.44597656 31.96230469 -9.76695312 32.98710938 -10.09765625 34.04296875 C-10.69203093 35.99076802 -11.2428845 37.95246331 -11.74609375 39.92578125 C-14.1759565 48.33147871 -19.10044205 51.9602391 -26 57 C-27.3493356 58.1269451 -28.68437462 59.27137751 -30 60.4375 C-30.62777344 60.99179688 -31.25554687 61.54609375 -31.90234375 62.1171875 C-34.46743197 64.41955719 -37.01519839 66.74046996 -39.5625 69.0625 C-51.07456565 79.53816084 -51.07456565 79.53816084 -54.05859375 81.02734375 C-56.26443052 82.13248129 -57.68318029 83.60421496 -59.3828125 85.3671875 C-61.5324801 87.53762483 -63.75505632 89.61575672 -66 91.6875 C-66.825 92.45449219 -67.65 93.22148437 -68.5 94.01171875 C-70.95375845 95.96322351 -73.04369301 97.01280463 -76 98 C-72.35950161 89.94889778 -64.06336015 83.97146921 -57 79 C-56.34 79 -55.68 79 -55 79 C-54.73807861 78.40832031 -54.47615723 77.81664062 -54.20629883 77.20703125 C-52.93458763 74.88032224 -51.64200141 73.47779759 -49.69921875 71.6875 C-49.05146484 71.08679688 -48.40371094 70.48609375 -47.73632812 69.8671875 C-47.06021484 69.25101562 -46.38410156 68.63484375 -45.6875 68 C-45.02298828 67.38382812 -44.35847656 66.76765625 -43.67382812 66.1328125 C-33.76688238 57 -33.76688238 57 -31 57 C-30.92910156 55.948125 -30.85820312 54.89625 -30.78515625 53.8125 C-30.00597196 47.57902568 -27.62613732 41.8520073 -25.4375 36 C-24.80038086 34.26556641 -24.80038086 34.26556641 -24.15039062 32.49609375 C-23.10779808 29.6611792 -22.05751108 26.82937584 -21 24 C-23.86633828 25.3023278 -25.29065914 26.29774839 -27.5625 28.625 C-30 31 -30 31 -33 31 C-33.20109375 31.5465625 -33.4021875 32.093125 -33.609375 32.65625 C-35.56182033 35.94688819 -38.33541253 38.0953768 -41.25 40.5 C-42.52490277 41.57142043 -43.7996377 42.64304061 -45.07421875 43.71484375 C-46.05334229 44.53251221 -46.05334229 44.53251221 -47.05224609 45.36669922 C-50.07903313 47.90482973 -53.06919099 50.4850688 -56.0625 53.0625 C-59.50275436 56.01644323 -62.94915028 58.96243563 -66.41796875 61.8828125 C-66.97202393 62.34929199 -67.5260791 62.81577148 -68.09692383 63.29638672 C-69.18876744 64.21520594 -70.28104452 65.13351033 -71.3737793 66.05126953 C-74.78738208 68.93190711 -78.09447017 71.90474433 -81.375 74.9375 C-85.04537805 78.28402117 -88.5627213 80.78136065 -93 83 C-92.59726806 78.58027514 -89.59188481 76.47270203 -86.4375 73.75 C-85.33453536 72.77241301 -84.23297541 71.79323894 -83.1328125 70.8125 C-82.59430664 70.33425781 -82.05580078 69.85601562 -81.50097656 69.36328125 C-79.52418435 67.56783432 -77.66633888 65.67138767 -75.8125 63.75 C-72.49413725 60.37656069 -68.93671261 57.51037616 -65.16796875 54.65625 C-61.12237107 51.56555916 -57.28747439 48.28747439 -53.6875 44.6875 C-48.18041111 39.18041111 -42.41063044 33.99802893 -36.1875 29.3125 C-32.51565767 26.52942516 -29.83837016 23.61247111 -27 20 C-26.01 19.505 -26.01 19.505 -25 19 C-31.90900509 19.78072597 -38.72711423 20.91870417 -45.5625 22.1875 C-46.66013672 22.37119141 -47.75777344 22.55488281 -48.88867188 22.74414062 C-55.02124404 23.90115997 -59.1038373 25.14644402 -63.56811523 29.58081055 C-65.48096971 31.47670536 -67.67970135 32.65151474 -70 34 C-71.85859865 35.42599379 -73.69122438 36.8863167 -75.5 38.375 C-76.4178125 39.12523437 -77.335625 39.87546875 -78.28125 40.6484375 C-80.98726596 42.98898579 -83.48949798 45.45257883 -86 48 C-91.2820353 52.97069582 -96.87165077 57.12722375 -103 61 C-102.43446569 57.50876819 -101.41269168 56.14360755 -98.6875 53.9375 C-94.43118698 50.38801153 -90.35943293 46.6800077 -86.30151367 42.90795898 C-83.29784221 40.13384208 -80.20481556 37.53714565 -77 35 C-76.401875 34.401875 -75.80375 33.80375 -75.1875 33.1875 C-72.65801884 30.65801884 -69.98422901 28.3420168 -67.28515625 25.99609375 C-59.50230415 19.27584048 -59.50230415 19.27584048 -52.1875 12.0625 C-48.22862172 8.32984334 -43.9168654 7.71193414 -38.640625 7.0703125 C-30.92199849 6.04049053 -23.36096446 4.50647854 -15.75 2.875 C-13.18283411 2.32810685 -10.61498116 1.78466986 -8.046875 1.2421875 C-6.93151367 1.0035498 -5.81615234 0.76491211 -4.66699219 0.51904297 C-2 0 -2 0 0 0 Z " fill="#7AD026" transform="translate(402,66)"/>
<path d="M0 0 C1.11761719 0.07831055 1.11761719 0.07831055 2.2578125 0.15820312 C4.08894861 0.2873217 5.91953813 0.42415114 7.75 0.5625 C9.55173668 5.45292814 10.48759722 10.25536528 11.3125 15.375 C11.71165612 20.37039634 11.71165612 20.37039634 13.75 24.5625 C13.86593506 23.87099854 13.98187012 23.17949707 14.10131836 22.46704102 C14.62590142 19.35231269 15.15661632 16.23866034 15.6875 13.125 C15.86990234 12.03638672 16.05230469 10.94777344 16.24023438 9.82617188 C16.41748047 8.79169922 16.59472656 7.75722656 16.77734375 6.69140625 C16.93968506 5.73306885 17.10202637 4.77473145 17.26928711 3.78735352 C17.75 1.5625 17.75 1.5625 18.75 0.5625 C20.43608966 0.49044489 22.12500659 0.47863932 23.8125 0.5 C24.73160156 0.50902344 25.65070313 0.51804687 26.59765625 0.52734375 C27.30792969 0.53894531 28.01820313 0.55054688 28.75 0.5625 C26.27596916 12.64159176 23.61000822 24.66508528 20.76904297 36.66357422 C19.24177204 43.11355821 19.24177204 43.11355821 18.1953125 49.65234375 C17.75 52.5625 17.75 52.5625 15.8125 55.375 C11.73148684 58.2900094 7.72770616 59.20815482 2.75 59.5625 C1.265 59.0675 1.265 59.0675 -0.25 58.5625 C-0.25 55.9225 -0.25 53.2825 -0.25 50.5625 C2.39 49.9025 5.03 49.2425 7.75 48.5625 C6.48689254 43.22388249 5.22345636 37.88534292 3.9597168 32.546875 C3.52993908 30.73114114 3.10025086 28.9153861 2.6706543 27.09960938 C2.05280768 24.48822531 1.43463823 21.87691785 0.81640625 19.265625 C0.62470352 18.45506653 0.43300079 17.64450806 0.23548889 16.80938721 C0.05537766 16.04890076 -0.12473358 15.28841431 -0.31030273 14.50488281 C-0.46796616 13.83869934 -0.62562958 13.17251587 -0.78807068 12.48614502 C-1.26299628 10.50837868 -1.75365109 8.53498875 -2.25 6.5625 C-2.58 7.8825 -2.91 9.2025 -3.25 10.5625 C-4.343125 10.500625 -5.43625 10.43875 -6.5625 10.375 C-10.05719662 10.25751747 -10.05719662 10.25751747 -11.94848633 11.60473633 C-13.92432902 14.5768396 -13.73045455 17.61823161 -13.76171875 21.07421875 C-13.77966995 21.80244339 -13.79762115 22.53066803 -13.81611633 23.28096008 C-13.87024213 25.60391471 -13.9041208 27.92666366 -13.9375 30.25 C-13.97067125 31.82620051 -14.00516073 33.40237388 -14.04101562 34.97851562 C-14.1259693 38.83969536 -14.19276876 42.70081387 -14.25 46.5625 C-17.88 46.5625 -21.51 46.5625 -25.25 46.5625 C-25.25 31.3825 -25.25 16.2025 -25.25 0.5625 C-20.91666667 0.5625 -16.58333333 0.5625 -12.25 0.5625 C-11.31849121 0.31125366 -11.31849121 0.31125366 -10.36816406 0.05493164 C-6.92846123 -0.74473187 -3.48972603 -0.26820333 0 0 Z " fill="#FFFFFF" transform="translate(253.25,392.4375)"/>
<path d="M0 0 C1.10891602 -0.01836914 1.10891602 -0.01836914 2.24023438 -0.03710938 C9.23680534 -0.05547308 16.23302572 0.78690556 21.9375 5.1875 C26.00243975 10.84938037 26.10484729 16.03154778 26.140625 22.828125 C26.14632507 23.66913757 26.15202515 24.51015015 26.15789795 25.37664795 C26.16733192 27.15522002 26.17387556 28.93380944 26.17773438 30.71240234 C26.18741598 33.41405301 26.21844421 36.11493473 26.25 38.81640625 C26.25653323 40.54947468 26.26178244 42.28254852 26.265625 44.015625 C26.2779718 44.81486389 26.2903186 45.61410278 26.30303955 46.43756104 C26.27563127 53.44506698 24.96579958 58.61674821 20.5859375 64.16796875 C15.73936761 67.7451989 9.27237604 66.70105197 3.5625 66.5 C1.74298828 66.46616211 1.74298828 66.46616211 -0.11328125 66.43164062 C-3.09762502 66.3728937 -6.07942067 66.29079222 -9.0625 66.1875 C-9.08562659 57.72982666 -9.1034167 49.27216644 -9.11431217 40.81446934 C-9.11954031 36.88761342 -9.12663669 32.96077906 -9.13793945 29.03393555 C-9.1487708 25.24735743 -9.15477736 21.4608001 -9.15737724 17.67420769 C-9.15923105 16.22645681 -9.16285081 14.77870712 -9.16823006 13.33096504 C-9.17544367 11.30992865 -9.17590808 9.28887152 -9.17602539 7.26782227 C-9.178246 6.11532486 -9.18046661 4.96282745 -9.18275452 3.77540588 C-8.93145458 -1.63262862 -4.3110411 0.00362577 0 0 Z M1.9375 9.1875 C1.9375 25.6875 1.9375 42.1875 1.9375 59.1875 C8.86373786 59.52469373 8.86373786 59.52469373 13.9375 56.1875 C16.38614489 49.27899524 16.2750795 42.53870807 16.25317383 35.31713867 C16.25000281 33.12693991 16.27355945 30.93808032 16.29882812 28.74804688 C16.30110063 27.34114752 16.30180484 25.93424457 16.30078125 24.52734375 C16.30376221 23.26269287 16.30674316 21.99804199 16.30981445 20.69506836 C15.90327361 16.86505371 14.95218653 14.45109201 12.9375 11.1875 C8.97711492 8.83267644 6.82732537 9.1875 1.9375 9.1875 Z " fill="#FFFFFF" transform="translate(62.0625,372.8125)"/>
<path d="M0 0 C3.3 0 6.6 0 10 0 C10.20496094 1.50433594 10.40992188 3.00867188 10.62109375 4.55859375 C10.89300912 6.51825971 11.1651565 8.47789349 11.4375 10.4375 C11.57220703 11.43072266 11.70691406 12.42394531 11.84570312 13.44726562 C11.97783203 14.39150391 12.10996094 15.33574219 12.24609375 16.30859375 C12.42676392 17.62041626 12.42676392 17.62041626 12.61108398 18.95874023 C12.79922202 20.98664505 12.79922202 20.98664505 14 22 C15.32 14.74 16.64 7.48 18 0 C20.97 0 23.94 0 27 0 C27.11593506 0.63091553 27.23187012 1.26183105 27.35131836 1.91186523 C27.87600481 4.75450681 28.40667024 7.5959995 28.9375 10.4375 C29.11990234 11.43072266 29.30230469 12.42394531 29.49023438 13.44726562 C29.66748047 14.39150391 29.84472656 15.33574219 30.02734375 16.30859375 C30.27085571 17.62041626 30.27085571 17.62041626 30.51928711 18.95874023 C30.8068839 20.98228064 30.8068839 20.98228064 32 22 C32.08564209 21.40461426 32.17128418 20.80922852 32.25952148 20.19580078 C32.64861253 17.50500371 33.04299001 14.81500768 33.4375 12.125 C33.57220703 11.18785156 33.70691406 10.25070312 33.84570312 9.28515625 C33.97783203 8.38925781 34.10996094 7.49335938 34.24609375 6.5703125 C34.36654053 5.74289551 34.4869873 4.91547852 34.61108398 4.06298828 C35 2 35 2 36 0 C38.64 0 41.28 0 44 0 C44.41710567 8.79471752 43.02833002 17.03190595 41.49145508 25.65307617 C41.05817586 28.0867885 40.63851974 30.52257445 40.22070312 32.95898438 C39.95130369 34.50534492 39.68114961 36.05157423 39.41015625 37.59765625 C39.28407486 38.3267067 39.15799347 39.05575714 39.02809143 39.80690002 C38.11621411 44.88378589 38.11621411 44.88378589 37 46 C35.48071962 46.07179964 33.95832518 46.08392007 32.4375 46.0625 C31.61121094 46.05347656 30.78492188 46.04445313 29.93359375 46.03515625 C29.29550781 46.02355469 28.65742188 46.01195312 28 46 C25.8115578 41.23865953 24.90295484 36.29121321 23.875 31.1875 C23.25625 28.155625 22.6375 25.12375 22 22 C20.68 29.92 19.36 37.84 18 46 C14.7 46 11.4 46 8 46 C6.43923817 40.879355 5.35275585 35.8269675 4.4921875 30.546875 C4.36184113 29.76483704 4.23149475 28.98279907 4.09719849 28.17706299 C3.82473973 26.53698301 3.55424869 24.89657504 3.28564453 23.25585938 C2.87379364 20.7426385 2.45495006 18.23065506 2.03515625 15.71875 C1.77042196 14.11985973 1.50608495 12.52090361 1.2421875 10.921875 C1.11721893 10.17186218 0.99225037 9.42184937 0.86349487 8.64910889 C0.3877163 5.72783604 0 2.96550646 0 0 Z " fill="#FFFFFF" transform="translate(301,393)"/>
<path d="M0 0 C-1.53707302 4.67482209 -3.10666055 9.33539067 -4.75390625 13.97265625 C-5.05103516 14.80990234 -5.34816406 15.64714844 -5.65429688 16.50976562 C-6.26143864 18.21629097 -6.87082695 19.92201866 -7.48242188 21.62695312 C-9.28262435 26.71379976 -10.73723903 31.75511124 -12 37 C-14.19271397 44.3367586 -16.81020911 48.54094676 -23 53 C-24.62631176 54.29001466 -26.25129048 55.58171149 -27.875 56.875 C-31.86580087 60 -31.86580087 60 -33 60 C-32.45415996 54.02821488 -31.15490648 48.94621733 -29.05859375 43.34375 C-28.77146011 42.55601196 -28.48432648 41.76827393 -28.18849182 40.95666504 C-27.27937525 38.46813676 -26.35866708 35.98408941 -25.4375 33.5 C-24.81498063 31.80236717 -24.19322829 30.10445286 -23.57226562 28.40625 C-22.0570225 24.26752735 -20.53137622 20.13277894 -19 16 C-19.54679413 16.11275269 -20.09358826 16.22550537 -20.6569519 16.3416748 C-26.33380595 17.51188054 -32.01121751 18.67935116 -37.68896484 19.84521484 C-39.80955278 20.28103223 -41.9299962 20.71755342 -44.05029297 21.15478516 C-47.09304948 21.78211364 -50.136312 22.40693234 -53.1796875 23.03125 C-54.13181122 23.22811401 -55.08393494 23.42497803 -56.06491089 23.62780762 C-57.38605392 23.89808777 -57.38605392 23.89808777 -58.73388672 24.17382812 C-59.51110077 24.33371216 -60.28831482 24.49359619 -61.08908081 24.6583252 C-63 25 -63 25 -65 25 C-63.43122496 21.20144921 -61.03476878 18.79977997 -58.125 15.9375 C-56.82949219 14.65166016 -56.82949219 14.65166016 -55.5078125 13.33984375 C-51.24144185 9.3592269 -48.58118579 7.63960058 -42.72265625 6.71875 C-41.48580078 6.51636719 -40.24894531 6.31398438 -38.97460938 6.10546875 C-37.68361328 5.90566406 -36.39261719 5.70585938 -35.0625 5.5 C-26.53280674 4.14330174 -18.12114697 2.67120337 -9.73535156 0.58666992 C-6.36555734 -0.13607334 -3.42584064 -0.23901214 0 0 Z " fill="#7AD027" transform="translate(429,44)"/>
<path d="M0 0 C2.97 0 5.94 0 9 0 C10 1 10 1 10.11352539 2.94946289 C10.10828857 3.7821167 10.10305176 4.61477051 10.09765625 5.47265625 C10.09443359 6.37177734 10.09121094 7.27089844 10.08789062 8.19726562 C10.07951172 9.14279297 10.07113281 10.08832031 10.0625 11.0625 C10.05798828 12.01189453 10.05347656 12.96128906 10.04882812 13.93945312 C10.0370011 16.29303065 10.02052025 18.64648477 10 21 C10.90363281 20.67644531 11.80726563 20.35289062 12.73828125 20.01953125 C16.88770258 18.7225265 19.67319536 18.64534388 24 19 C26.67431489 20.81163267 26.95920359 21.87761077 28 25 C28.08567246 26.36592183 28.11773647 27.73564858 28.11352539 29.10424805 C28.11344986 29.92487228 28.11337433 30.74549652 28.11329651 31.59098816 C28.10813522 32.47232925 28.10297394 33.35367035 28.09765625 34.26171875 C28.0962413 35.16751175 28.09482635 36.07330475 28.09336853 37.00654602 C28.08777001 39.90023091 28.07521781 42.79383849 28.0625 45.6875 C28.05748481 47.64908742 28.05292193 49.61067606 28.04882812 51.57226562 C28.03780107 56.38154021 28.02053747 61.190757 28 66 C24.7 66 21.4 66 18 66 C17.505 47.685 17.505 47.685 17 29 C13.14061025 27.65486576 13.14061025 27.65486576 10 29 C10 41.21 10 53.42 10 66 C6.7 66 3.4 66 0 66 C0 44.22 0 22.44 0 0 Z " fill="#FFFFFF" transform="translate(394,373)"/>
<path d="M0 0 C2.97 0 5.94 0 9 0 C9 21.78 9 43.56 9 66 C-12 67 -12 67 -16 65 C-19.65809944 58.04795581 -19.45062821 51.22248094 -19.375 43.5 C-19.38660156 42.31535156 -19.39820313 41.13070312 -19.41015625 39.91015625 C-19.38565692 32.58485695 -19.18931347 25.92530889 -14.375 20 C-10.6793851 18.44395162 -6.95528947 18.60294391 -3 19 C-2.34 19.33 -1.68 19.66 -1 20 C-0.67 13.4 -0.34 6.8 0 0 Z M-7 27 C-9.30240295 30.45360443 -9.25691777 31.80499384 -9.265625 35.875 C-9.26820313 37.02484375 -9.27078125 38.1746875 -9.2734375 39.359375 C-9.26570312 40.56078125 -9.25796875 41.7621875 -9.25 43 C-9.25773438 44.20140625 -9.26546875 45.4028125 -9.2734375 46.640625 C-9.27085937 47.79046875 -9.26828125 48.9403125 -9.265625 50.125 C-9.26336914 51.17945313 -9.26111328 52.23390625 -9.25878906 53.3203125 C-9.19112458 56.22480768 -9.19112458 56.22480768 -7 59 C-3.18186553 58.72459296 -3.18186553 58.72459296 0 57 C0.28188316 52.36045946 0.2318207 47.7095829 0.25 43.0625 C0.270625 41.74830078 0.29125 40.43410156 0.3125 39.08007812 C0.31765625 37.82775391 0.3228125 36.57542969 0.328125 35.28515625 C0.3374707 34.12894775 0.34681641 32.97273926 0.35644531 31.78149414 C0.23881836 30.86360107 0.12119141 29.94570801 0 29 C-2.95377498 26.63019987 -2.95377498 26.63019987 -7 27 Z " fill="#FFFFFF" transform="translate(853,373)"/>
<path d="M0 0 C3 2 3 2 4 5 C4.08589303 6.39655459 4.11772715 7.79685777 4.11352539 9.19604492 C4.11344986 10.03668991 4.11337433 10.8773349 4.11329651 11.74345398 C4.10813522 12.64666885 4.10297394 13.54988373 4.09765625 14.48046875 C4.0962413 15.40845779 4.09482635 16.33644684 4.09336853 17.29255676 C4.08776937 20.25757058 4.07521704 23.22250899 4.0625 26.1875 C4.05748489 28.19726453 4.052922 30.20703025 4.04882812 32.21679688 C4.03780021 37.14456032 4.02053617 42.07226737 4 47 C0.37 47 -3.26 47 -7 47 C-7 34.13 -7 21.26 -7 8 C-9.31 8.66 -11.62 9.32 -14 10 C-14 22.21 -14 34.42 -14 47 C-17.63 47 -21.26 47 -25 47 C-25 31.82 -25 16.64 -25 1 C-20.71 1 -16.42 1 -12 1 C-7.6242643 -0.09393392 -4.488342 -0.21373057 0 0 Z " fill="#FFFFFF" transform="translate(672,392)"/>
<path d="M0 0 C0.7734375 -0.01417969 1.546875 -0.02835937 2.34375 -0.04296875 C4.5 0.1875 4.5 0.1875 7.5 2.1875 C8.41861784 4.94335352 8.62204322 6.5471069 8.61352539 9.38354492 C8.61344986 10.22418991 8.61337433 11.0648349 8.61329651 11.93095398 C8.60813522 12.83416885 8.60297394 13.73738373 8.59765625 14.66796875 C8.5962413 15.59595779 8.59482635 16.52394684 8.59336853 17.48005676 C8.58776937 20.44507058 8.57521704 23.41000899 8.5625 26.375 C8.55748489 28.38476453 8.552922 30.39453025 8.54882812 32.40429688 C8.53780021 37.33206032 8.52053617 42.25976737 8.5 47.1875 C4.87 47.1875 1.24 47.1875 -2.5 47.1875 C-2.83 34.6475 -3.16 22.1075 -3.5 9.1875 C-5.15 9.5175 -6.8 9.8475 -8.5 10.1875 C-8.83 22.3975 -9.16 34.6075 -9.5 47.1875 C-13.13 47.1875 -16.76 47.1875 -20.5 47.1875 C-20.5 32.0075 -20.5 16.8275 -20.5 1.1875 C-16.21 1.1875 -11.92 1.1875 -7.5 1.1875 C-4.71398777 0.25882926 -2.88933911 0.02407783 0 0 Z " fill="#FFFFFF" transform="translate(819.5,391.8125)"/>
<path d="M0 0 C3.21424747 5.06436851 3.46659723 9.31197874 3.51171875 15.1171875 C3.53864555 16.4029216 3.53864555 16.4029216 3.56611633 17.71463013 C3.62001405 20.43470436 3.65404858 23.1546052 3.6875 25.875 C3.72069126 27.72658652 3.75518259 29.57815022 3.79101562 31.4296875 C3.87572852 35.95299948 3.9426372 40.47626186 4 45 C0 45 -4 45 -8 45 C-8.99 45.495 -8.99 45.495 -10 46 C-12.0234375 46.16796875 -12.0234375 46.16796875 -14.375 46.1875 C-15.14585938 46.20167969 -15.91671875 46.21585937 -16.7109375 46.23046875 C-19.31749827 45.96803345 -20.82811477 45.46486727 -23 44 C-25.23747567 40.81070929 -25.29801909 37.89028649 -25.3125 34.0625 C-25.32925781 33.04285156 -25.34601563 32.02320313 -25.36328125 30.97265625 C-24.93323503 27.45367589 -24.21748594 25.76727585 -22 23 C-18.93359375 20.98046875 -18.93359375 20.98046875 -15.4375 19.1875 C-14.28121094 18.58292969 -13.12492187 17.97835938 -11.93359375 17.35546875 C-9 16 -9 16 -7 16 C-7.33 13.03 -7.66 10.06 -8 7 C-9.65 7.33 -11.3 7.66 -13 8 C-13.33 10.31 -13.66 12.62 -14 15 C-15.45823212 15.0270043 -16.91660675 15.04639787 -18.375 15.0625 C-19.18710938 15.07410156 -19.99921875 15.08570313 -20.8359375 15.09765625 C-23 15 -23 15 -25 14 C-25.31549831 8.74169479 -24.73345236 5.52070968 -22 1 C-17.32150994 -3.67849006 -5.39095691 -3.59397127 0 0 Z M-10.4375 25.1875 C-12.87590096 27.86379374 -14.19224087 29.49971043 -15 33 C-14.23396041 35.2857711 -14.23396041 35.2857711 -13 37 C-9.70924004 36.62095792 -9.70924004 36.62095792 -7 35 C-6.92755947 32.98035801 -6.91622812 30.95832876 -6.9375 28.9375 C-6.94652344 27.83277344 -6.95554687 26.72804688 -6.96484375 25.58984375 C-6.97644531 24.73519531 -6.98804688 23.88054687 -7 23 C-8.42181681 22.88868171 -8.42181681 22.88868171 -10.4375 25.1875 Z " fill="#FFFFFF" transform="translate(1063,394)"/>
<path d="M0 0 C4.40657412 4.26886867 5.33500967 9.48757878 5.49235535 15.37181091 C5.49874527 16.14501175 5.50513519 16.91821259 5.51171875 17.71484375 C5.53864555 18.93186729 5.53864555 18.93186729 5.56611633 20.17347717 C5.61988463 22.74060008 5.65400616 25.3075407 5.6875 27.875 C5.72070276 29.62567623 5.75519513 31.3763285 5.79101562 33.12695312 C5.87559126 37.39700314 5.94256074 41.66700225 6 45.9375 C2.7 45.9375 -0.6 45.9375 -4 45.9375 C-4.33 45.2775 -4.66 44.6175 -5 43.9375 C-5.33 44.5975 -5.66 45.2575 -6 45.9375 C-9.72900316 47.18050105 -13.13349214 47.6086674 -17 46.9375 C-20.02391552 45.19842412 -22.41748661 43.10252678 -24 39.9375 C-24.58449761 34.31733071 -24.42989554 29.61463028 -21 24.9375 C-16.09181202 20.85224174 -11.23174087 18.26340231 -5 16.9375 C-5.66 13.9675 -6.32 10.9975 -7 7.9375 C-8.32 7.9375 -9.64 7.9375 -11 7.9375 C-11.66 10.5775 -12.32 13.2175 -13 15.9375 C-14.258125 15.958125 -15.51625 15.97875 -16.8125 16 C-17.52019531 16.01160156 -18.22789062 16.02320313 -18.95703125 16.03515625 C-21 15.9375 -21 15.9375 -24 14.9375 C-23.35680751 4.75731544 -23.35680751 4.75731544 -20 0.9375 C-14.12864021 -2.14496389 -6.19010424 -2.19232859 0 0 Z M-10.62890625 27.3671875 C-12.90626849 29.97544853 -12.93674123 32.5847852 -13 35.9375 C-12.67 36.5975 -12.34 37.2575 -12 37.9375 C-8.06924356 37.36297254 -8.06924356 37.36297254 -5 34.9375 C-4.75684344 32.26800591 -4.75684344 32.26800591 -4.875 29.3125 C-4.89304687 28.30960937 -4.91109375 27.30671875 -4.9296875 26.2734375 C-4.95289063 25.50257813 -4.97609375 24.73171875 -5 23.9375 C-7.28994092 23.9375 -8.96222183 25.9682917 -10.62890625 27.3671875 Z " fill="#FFFFFF" transform="translate(788,393.0625)"/>
<path d="M0 0 C0.66 -0.03738281 1.32 -0.07476562 2 -0.11328125 C5.14590323 0.55645206 6.09105706 1.71383488 8 4.3125 C8.56419183 7.57937256 8.46483029 10.80285951 8.390625 14.109375 C8.38496521 15.05814514 8.37930542 16.00691528 8.37347412 16.98443604 C8.35110609 20.01097336 8.30090858 23.03632129 8.25 26.0625 C8.22993557 28.1158683 8.2116847 30.16925519 8.1953125 32.22265625 C8.15123981 37.25306156 8.08220891 42.28257921 8 47.3125 C4.7 47.3125 1.4 47.3125 -2 47.3125 C-2.33 34.7725 -2.66 22.2325 -3 9.3125 C-7.63019987 9.7577998 -7.63019987 9.7577998 -9 11.3125 C-9.16003488 13.97676685 -9.25942889 16.61810428 -9.31640625 19.28515625 C-9.33718735 20.08279892 -9.35796844 20.88044159 -9.37937927 21.70225525 C-9.44496158 24.25974611 -9.50379967 26.8173428 -9.5625 29.375 C-9.60567699 31.10482882 -9.64929101 32.83464679 -9.69335938 34.56445312 C-9.80065172 38.8136926 -9.90189426 43.0630389 -10 47.3125 C-13.63 47.3125 -17.26 47.3125 -21 47.3125 C-21 32.1325 -21 16.9525 -21 1.3125 C-16.66666667 1.3125 -12.33333333 1.3125 -8 1.3125 C-7.46375 1.1475 -6.9275 0.9825 -6.375 0.8125 C-4.2020126 0.35502897 -2.21383473 0.11110323 0 0 Z " fill="#FFFFFF" transform="translate(961,391.6875)"/>
<path d="M0 0 C6.96310738 8.31704493 5.45560019 20.69294019 5 31 C4.53765608 35.87509473 4.04596378 39.61662856 1.0625 43.5625 C-2.38274861 45.96373388 -5.28621534 46.15949463 -9.375 46.1875 C-10.31085938 46.20167969 -11.24671875 46.21585937 -12.2109375 46.23046875 C-16.19650392 45.90112923 -19.04266819 45.05990308 -21.75 42.0625 C-25.05052424 36.616635 -24.22286177 30.45099339 -24.24023438 24.28588867 C-24.24991783 22.20515627 -24.28094366 20.12542168 -24.3125 18.04492188 C-24.31903307 16.71094333 -24.32428235 15.37695776 -24.328125 14.04296875 C-24.3374707 12.83664795 -24.34681641 11.63032715 -24.35644531 10.38745117 C-23.86167016 5.68539275 -22.34381495 2.34381495 -19 -1 C-13.34545795 -2.90916796 -5.10176147 -3.30113978 0 0 Z M-12 6 C-14.9481667 16.68710429 -14.9481667 27.31289571 -12 38 C-10.68 38 -9.36 38 -8 38 C-6.12179738 34.80640275 -5.7435036 32.43957849 -5.734375 28.75390625 C-5.73179688 27.75166016 -5.72921875 26.74941406 -5.7265625 25.71679688 C-5.73429687 24.67587891 -5.74203125 23.63496094 -5.75 22.5625 C-5.74226563 21.52544922 -5.73453125 20.48839844 -5.7265625 19.41992188 C-5.73042969 17.91461914 -5.73042969 17.91461914 -5.734375 16.37890625 C-5.73663086 15.4669751 -5.73888672 14.55504395 -5.74121094 13.61547852 C-6.02293141 10.76824128 -6.82106733 8.59406163 -8 6 C-9.32 6 -10.64 6 -12 6 Z " fill="#FFFFFF" transform="translate(1139,394)"/>
<path d="M0 0 C1.40765625 -0.00386719 1.40765625 -0.00386719 2.84375 -0.0078125 C5.27219466 0.11360973 7.22557695 0.27766592 9.5 1.125 C15.20479828 8.45974065 14.71047578 14.90300315 14.75 23.875 C14.770625 25.03 14.79125 26.185 14.8125 27.375 C14.84285647 34.02306639 14.43189114 39.1188929 11.5 45.125 C8.06392677 48.56107323 4.26761052 48.30380035 -0.4375 48.375 C-1.45714844 48.40078125 -2.47679687 48.4265625 -3.52734375 48.453125 C-7.11568863 48.05703963 -8.75230357 47.48681013 -11.5 45.125 C-14.99797441 38.45746362 -14.95430502 32.10251919 -14.875 24.6875 C-14.88660156 23.60662109 -14.89820313 22.52574219 -14.91015625 21.41210938 C-14.88446216 14.35051613 -14.7782501 6.4032501 -9.5 1.125 C-6.33609804 0.02873572 -3.32869089 -0.00914476 0 0 Z M-2.5 8.125 C-5.74052508 12.98578762 -4.86884672 18.34918163 -4.875 24.0625 C-4.89949219 25.25552734 -4.92398438 26.44855469 -4.94921875 27.67773438 C-4.95308594 28.82435547 -4.95695313 29.97097656 -4.9609375 31.15234375 C-4.96915527 32.20156006 -4.97737305 33.25077637 -4.98583984 34.33178711 C-4.38780413 37.77004168 -3.14718048 38.94043676 -0.5 41.125 C1.6000983 40.05276714 1.6000983 40.05276714 3.5 38.125 C4.08552462 35.16243906 4.08552462 35.16243906 3.9609375 31.77734375 C3.95707031 30.53275391 3.95320312 29.28816406 3.94921875 28.00585938 C3.92472656 26.70455078 3.90023437 25.40324219 3.875 24.0625 C3.87371094 22.75732422 3.87242187 21.45214844 3.87109375 20.10742188 C4.31768922 13.5197326 4.31768922 13.5197326 1.5 8.125 C0.18 8.125 -1.14 8.125 -2.5 8.125 Z " fill="#FFFFFF" transform="translate(989.5,391.875)"/>
<path d="M0 0 C3.31975846 2.89140253 4.3569076 5.44378852 4.9375 9.6875 C5.06595836 14.35824606 4.9811792 19.01382581 4.9375 23.6875 C-1.0025 23.6875 -6.9425 23.6875 -13.0625 23.6875 C-12.918125 25.440625 -12.77375 27.19375 -12.625 29 C-12.54378906 29.98613281 -12.46257812 30.97226562 -12.37890625 31.98828125 C-12.14437441 34.78125599 -12.14437441 34.78125599 -11.0625 37.6875 C-10.0725 38.0175 -9.0825 38.3475 -8.0625 38.6875 C-7.0725 38.1925 -7.0725 38.1925 -6.0625 37.6875 C-5.59598793 35.56173218 -5.59598793 35.56173218 -5.4375 33.125 C-5.31375 31.660625 -5.19 30.19625 -5.0625 28.6875 C-1.7625 28.6875 1.5375 28.6875 4.9375 28.6875 C5.24390871 34.5092654 4.90358593 38.47127992 1.9375 43.6875 C-1.76382099 46.45864608 -4.47467768 47.09761089 -9.0625 47.0625 C-10.073125 47.07023437 -11.08375 47.07796875 -12.125 47.0859375 C-15.47243402 46.63189725 -17.34378904 45.65999134 -20.0625 43.6875 C-24.73677564 37.51077862 -24.24449656 30.22012871 -24.25 22.8125 C-24.26224609 21.95269531 -24.27449219 21.09289062 -24.28710938 20.20703125 C-24.30153209 13.87065375 -24.07600142 5.90505185 -20.0625 0.6875 C-14.13869786 -2.35034725 -6.0934493 -2.61147827 0 0 Z M-11.0625 6.6875 C-13.38840854 10.32173209 -13.22515833 13.45838331 -13.0625 17.6875 C-10.4225 17.6875 -7.7825 17.6875 -5.0625 17.6875 C-5.0354957 16.22926788 -5.01610213 14.77089325 -5 13.3125 C-4.98839844 12.50039063 -4.97679687 11.68828125 -4.96484375 10.8515625 C-4.91783666 8.63812858 -4.91783666 8.63812858 -6.0625 6.6875 C-7.7125 6.6875 -9.3625 6.6875 -11.0625 6.6875 Z " fill="#FFFFFF" transform="translate(469.0625,393.3125)"/>
<path d="M0 0 C1.40765625 -0.00386719 1.40765625 -0.00386719 2.84375 -0.0078125 C4.15859375 0.05792969 4.15859375 0.05792969 5.5 0.125 C6.1909375 0.14820313 6.881875 0.17140625 7.59375 0.1953125 C10.90628786 1.8108535 12.23626882 4.82585826 13.5 8.125 C14.06271614 11.11291502 14.19181991 14.02733976 14.25 17.0625 C14.3325 19.723125 14.415 22.38375 14.5 25.125 C8.23 25.125 1.96 25.125 -4.5 25.125 C-4.17 29.415 -3.84 33.705 -3.5 38.125 C-1.85 38.455 -0.2 38.785 1.5 39.125 C2.16 36.155 2.82 33.185 3.5 30.125 C6.8 30.125 10.1 30.125 13.5 30.125 C13.95542807 41.35889232 13.95542807 41.35889232 10.5 46.125 C6.78486923 48.01174181 3.64018856 48.42165744 -0.5 48.4375 C-1.510625 48.45425781 -2.52125 48.47101563 -3.5625 48.48828125 C-7.07283532 48.05415733 -8.77233255 47.38730527 -11.5 45.125 C-15.60809816 38.66685442 -14.94430707 31.56395846 -14.875 24.125 C-14.88660156 22.87976563 -14.89820312 21.63453125 -14.91015625 20.3515625 C-14.86582553 6.49082553 -14.86582553 6.49082553 -9.5 1.125 C-6.33609804 0.02873572 -3.32869089 -0.00914476 0 0 Z M-2.5 8.125 C-4.71370051 9.91157757 -4.71370051 9.91157757 -4.6953125 12.2890625 C-4.67210938 13.10117187 -4.64890625 13.91328125 -4.625 14.75 C-4.60695313 15.56726563 -4.58890625 16.38453125 -4.5703125 17.2265625 C-4.54710938 17.85304688 -4.52390625 18.47953125 -4.5 19.125 C-1.86 19.125 0.78 19.125 3.5 19.125 C3.54125 17.866875 3.5825 16.60875 3.625 15.3125 C3.65980469 14.25095703 3.65980469 14.25095703 3.6953125 13.16796875 C3.63254462 10.81140281 3.63254462 10.81140281 1.5 8.125 C0.18 8.125 -1.14 8.125 -2.5 8.125 Z " fill="#FFFFFF" transform="translate(108.5,391.875)"/>
<path d="M0 0 C3 2 3 2 4 5 C4.08589303 6.39655459 4.11772715 7.79685777 4.11352539 9.19604492 C4.11344986 10.03668991 4.11337433 10.8773349 4.11329651 11.74345398 C4.10813522 12.64666885 4.10297394 13.54988373 4.09765625 14.48046875 C4.0962413 15.40845779 4.09482635 16.33644684 4.09336853 17.29255676 C4.08776937 20.25757058 4.07521704 23.22250899 4.0625 26.1875 C4.05748489 28.19726453 4.052922 30.20703025 4.04882812 32.21679688 C4.03780021 37.14456032 4.02053617 42.07226737 4 47 C0.7 47 -2.6 47 -6 47 C-6.33 34.46 -6.66 21.92 -7 9 C-9.31 9.33 -11.62 9.66 -14 10 C-14 22.21 -14 34.42 -14 47 C-17.3 47 -20.6 47 -24 47 C-24 31.82 -24 16.64 -24 1 C-20 1 -16 1 -12 1 C-11.46375 0.835 -10.9275 0.67 -10.375 0.5 C-6.82461869 -0.2474487 -3.63460189 -0.17307628 0 0 Z " fill="#FFFFFF" transform="translate(930,392)"/>
<path d="M0 0 C1.40765625 -0.00386719 1.40765625 -0.00386719 2.84375 -0.0078125 C5.25816705 0.11290835 7.23051557 0.30476505 9.5 1.125 C13.4535663 6.54285012 13.64208481 11.34763682 13.5625 17.875 C13.541875 20.2675 13.52125 22.66 13.5 25.125 C7.56 25.125 1.62 25.125 -4.5 25.125 C-3.84 30.075 -3.18 35.025 -2.5 40.125 C-0.025 39.63 -0.025 39.63 2.5 39.125 C3.16 36.155 3.82 33.185 4.5 30.125 C7.47 30.125 10.44 30.125 13.5 30.125 C14.00113974 37.04351255 13.70711348 41.47544762 9.5 47.125 C4.100446 48.92485133 -2.31332262 49.13247189 -7.7734375 47.40625 C-10.48769102 45.98613423 -12.23468973 44.6346175 -13.65649414 41.90356445 C-15.19444608 36.83744839 -14.91108033 31.62774138 -14.92553711 26.36987305 C-14.93740967 24.32803416 -14.98661511 22.2892469 -15.03710938 20.24804688 C-15.0742708 13.40696563 -14.95059107 8.1540763 -10.96899414 2.4387207 C-7.86309212 -0.33888587 -3.97667256 -0.01092492 0 0 Z M-2.5 8.125 C-3.92258812 11.94820557 -4.74042276 15.03781305 -4.5 19.125 C-1.53 19.125 1.44 19.125 4.5 19.125 C4.35957123 17.47869672 4.21250671 15.83295821 4.0625 14.1875 C3.98128906 13.27097656 3.90007813 12.35445313 3.81640625 11.41015625 C3.73955024 9.16340268 3.73955024 9.16340268 2.5 8.125 C0.83382885 8.08436168 -0.83388095 8.082279 -2.5 8.125 Z " fill="#FFFFFF" transform="translate(728.5,391.875)"/>
<path d="M0 0 C1.40765625 -0.00386719 1.40765625 -0.00386719 2.84375 -0.0078125 C5.25816705 0.11290835 7.23051557 0.30476505 9.5 1.125 C13.4535663 6.54285012 13.64208481 11.34763682 13.5625 17.875 C13.541875 20.2675 13.52125 22.66 13.5 25.125 C7.56 25.125 1.62 25.125 -4.5 25.125 C-3.84 30.075 -3.18 35.025 -2.5 40.125 C-0.025 39.63 -0.025 39.63 2.5 39.125 C3.16 36.155 3.82 33.185 4.5 30.125 C7.47 30.125 10.44 30.125 13.5 30.125 C14.00113974 37.04351255 13.70711348 41.47544762 9.5 47.125 C4.100446 48.92485133 -2.31332262 49.13247189 -7.7734375 47.40625 C-10.48769102 45.98613423 -12.23468973 44.6346175 -13.65649414 41.90356445 C-15.19444608 36.83744839 -14.91108033 31.62774138 -14.92553711 26.36987305 C-14.93740967 24.32803416 -14.98661511 22.2892469 -15.03710938 20.24804688 C-15.0742708 13.40696563 -14.95059107 8.1540763 -10.96899414 2.4387207 C-7.86309212 -0.33888587 -3.97667256 -0.01092492 0 0 Z M-2.5 8.125 C-3.92258812 11.94820557 -4.74042276 15.03781305 -4.5 19.125 C-1.53 19.125 1.44 19.125 4.5 19.125 C4.35957123 17.47869672 4.21250671 15.83295821 4.0625 14.1875 C3.98128906 13.27097656 3.90007813 12.35445313 3.81640625 11.41015625 C3.73955024 9.16340268 3.73955024 9.16340268 2.5 8.125 C0.83382885 8.08436168 -0.83388095 8.082279 -2.5 8.125 Z " fill="#FFFFFF" transform="translate(557.5,391.875)"/>
<path d="M0 0 C3.19871608 1.73872119 4.58701025 2.69853074 5.7578125 6.2109375 C5.83803249 7.61918643 5.86547227 9.03090981 5.85546875 10.44140625 C5.85297119 11.16481201 5.85047363 11.88821777 5.84790039 12.63354492 C5.83879639 13.54595947 5.82969238 14.45837402 5.8203125 15.3984375 C5.7996875 18.3065625 5.7790625 21.2146875 5.7578125 24.2109375 C-0.1821875 24.2109375 -6.1221875 24.2109375 -12.2421875 24.2109375 C-12.0978125 25.9640625 -11.9534375 27.7171875 -11.8046875 29.5234375 C-11.72347656 30.50957031 -11.64226562 31.49570312 -11.55859375 32.51171875 C-11.32406191 35.30469349 -11.32406191 35.30469349 -10.2421875 38.2109375 C-9.2521875 38.5409375 -8.2621875 38.8709375 -7.2421875 39.2109375 C-6.2521875 38.7159375 -6.2521875 38.7159375 -5.2421875 38.2109375 C-4.77567543 36.08516968 -4.77567543 36.08516968 -4.6171875 33.6484375 C-4.4934375 32.1840625 -4.3696875 30.7196875 -4.2421875 29.2109375 C-0.9421875 29.2109375 2.3578125 29.2109375 5.7578125 29.2109375 C6.44575397 39.95046828 6.44575397 39.95046828 4.0078125 43.8359375 C1.02497193 46.98449144 -0.83692015 47.11042319 -5.08203125 47.4140625 C-6.10425781 47.42953125 -7.12648437 47.445 -8.1796875 47.4609375 C-9.19933594 47.48671875 -10.21898437 47.5125 -11.26953125 47.5390625 C-14.67570884 47.16308495 -16.50507439 46.23824863 -19.2421875 44.2109375 C-22.69076172 37.8310752 -22.42441249 30.46167215 -22.4296875 23.3984375 C-22.44193359 22.54701172 -22.45417969 21.69558594 -22.46679688 20.81835938 C-22.4818151 14.24538229 -22.46134564 7.07436736 -18.3046875 1.7109375 C-13.30216502 -1.92726067 -5.73216808 -2.01724382 0 0 Z M-10.2421875 7.2109375 C-12.56809604 10.84516959 -12.40484583 13.98182081 -12.2421875 18.2109375 C-9.6021875 18.2109375 -6.9621875 18.2109375 -4.2421875 18.2109375 C-4.2151832 16.75270538 -4.19578963 15.29433075 -4.1796875 13.8359375 C-4.16808594 13.02382813 -4.15648437 12.21171875 -4.14453125 11.375 C-4.09752416 9.16156608 -4.09752416 9.16156608 -5.2421875 7.2109375 C-6.8921875 7.2109375 -8.5421875 7.2109375 -10.2421875 7.2109375 Z " fill="#FFFFFF" transform="translate(216.2421875,392.7890625)"/>
<path d="M0 0 C3.31975846 2.89140253 4.3569076 5.44378852 4.9375 9.6875 C5.06595836 14.35824606 4.9811792 19.01382581 4.9375 23.6875 C-1.0025 23.6875 -6.9425 23.6875 -13.0625 23.6875 C-12.918125 25.440625 -12.77375 27.19375 -12.625 29 C-12.54378906 29.98613281 -12.46257813 30.97226562 -12.37890625 31.98828125 C-12.14437441 34.78125599 -12.14437441 34.78125599 -11.0625 37.6875 C-10.0725 38.0175 -9.0825 38.3475 -8.0625 38.6875 C-7.0725 38.1925 -7.0725 38.1925 -6.0625 37.6875 C-5.59598793 35.56173218 -5.59598793 35.56173218 -5.4375 33.125 C-5.31375 31.660625 -5.19 30.19625 -5.0625 28.6875 C-1.7625 28.6875 1.5375 28.6875 4.9375 28.6875 C5.24390871 34.5092654 4.90358593 38.47127992 1.9375 43.6875 C-1.76382099 46.45864608 -4.47467768 47.09761089 -9.0625 47.0625 C-10.073125 47.07023437 -11.08375 47.07796875 -12.125 47.0859375 C-15.47018933 46.63220171 -17.35759564 45.67781083 -20.0625 43.6875 C-23.51107422 37.3076377 -23.24472499 29.93823465 -23.25 22.875 C-23.26224609 22.02357422 -23.27449219 21.17214844 -23.28710938 20.29492188 C-23.3021276 13.72194479 -23.28165814 6.55092986 -19.125 1.1875 C-13.84883345 -2.64971203 -5.83002832 -2.49858357 0 0 Z M-11.0625 6.6875 C-13.38840854 10.32173209 -13.22515833 13.45838331 -13.0625 17.6875 C-10.4225 17.6875 -7.7825 17.6875 -5.0625 17.6875 C-5.0354957 16.22926788 -5.01610213 14.77089325 -5 13.3125 C-4.98839844 12.50039063 -4.97679687 11.68828125 -4.96484375 10.8515625 C-4.91783666 8.63812858 -4.91783666 8.63812858 -6.0625 6.6875 C-7.7125 6.6875 -9.3625 6.6875 -11.0625 6.6875 Z " fill="#FFFFFF" transform="translate(636.0625,393.3125)"/>
<path d="M0 0 C2.14278928 1.54285302 2.89614946 2.4152999 3.36076355 5.03117371 C3.35410172 5.80616714 3.34743988 6.58116058 3.34057617 7.37963867 C3.34034958 8.26032516 3.34012299 9.14101166 3.33988953 10.04838562 C3.32440567 10.99534805 3.30892181 11.94231049 3.29296875 12.91796875 C3.28872391 13.89034988 3.28447906 14.86273102 3.28010559 15.86457825 C3.26330315 18.97249966 3.22564779 22.07977434 3.1875 25.1875 C3.1724552 27.29361043 3.15876644 29.39973102 3.14648438 31.50585938 C3.11339444 36.67082238 3.06160109 41.83530151 3 47 C0.03 47 -2.94 47 -6 47 C-6.02505615 45.91992676 -6.0501123 44.83985352 -6.07592773 43.72705078 C-6.16995572 39.72757688 -6.27018754 35.72827853 -6.37231445 31.72900391 C-6.4156808 29.99662374 -6.45735463 28.26420037 -6.49731445 26.53173828 C-6.55497594 24.04446373 -6.61868198 21.55740707 -6.68359375 19.0703125 C-6.70030624 18.29317902 -6.71701874 17.51604553 -6.73423767 16.71536255 C-6.76473429 12.72725784 -6.76473429 12.72725784 -8 9 C-9.65 9.33 -11.3 9.66 -13 10 C-13.33 22.21 -13.66 34.42 -14 47 C-17.3 47 -20.6 47 -24 47 C-24 31.82 -24 16.64 -24 1 C-20.04 1 -16.08 1 -12 1 C-7.59377884 -0.10155529 -4.51926269 -0.28693731 0 0 Z " fill="#FFFFFF" transform="translate(1174,392)"/>
<path d="M0 0 C0.9178125 -0.00515625 1.835625 -0.0103125 2.78125 -0.015625 C6.65240132 0.36259093 9.52468138 1.23984857 12.25 4.0625 C14.82577541 8.57010697 14.69621491 13.14841233 14.5 18.25 C13.5 19.25 13.5 19.25 11.43359375 19.34765625 C7.96679688 19.29882812 7.96679688 19.29882812 4.5 19.25 C3.84 15.95 3.18 12.65 2.5 9.25 C0.85 9.25 -0.8 9.25 -2.5 9.25 C-3.80384209 14.2170175 -3.64715112 19.15524165 -3.625 24.25 C-3.62886719 25.13945312 -3.63273438 26.02890625 -3.63671875 26.9453125 C-3.63041234 31.17060791 -3.58073173 35.13292676 -2.5 39.25 C-1.51 39.58 -0.52 39.91 0.5 40.25 C1.49 39.755 1.49 39.755 2.5 39.25 C3.19093896 36.67048126 3.19093896 36.67048126 3.625 33.6875 C3.79257812 32.67558594 3.96015625 31.66367187 4.1328125 30.62109375 C4.25398437 29.83863281 4.37515625 29.05617188 4.5 28.25 C5.97906892 28.22310784 7.45827483 28.20365379 8.9375 28.1875 C9.76121094 28.17589844 10.58492187 28.16429687 11.43359375 28.15234375 C13.5 28.25 13.5 28.25 14.5 29.25 C14.51471906 31.33421865 14.43612317 33.4193988 14.3125 35.5 C14.25707031 36.63953125 14.20164062 37.7790625 14.14453125 38.953125 C13.39687025 42.77752431 12.23296677 44.51203694 9.5 47.25 C6.16749498 48.36083501 3.56961042 48.41759585 0.0625 48.4375 C-1.07058594 48.45167969 -2.20367188 48.46585937 -3.37109375 48.48046875 C-8.15919705 48.12778698 -8.15919705 48.12778698 -10.5 46.25 C-14.44846177 40.10397806 -13.95809136 33.40591316 -13.89111328 26.2890625 C-13.87503577 24.2545262 -13.8910094 22.22197568 -13.91015625 20.1875 C-13.87184563 7.31513055 -13.87184563 7.31513055 -10.5 2.25 C-7.07163294 0.17012398 -3.95964583 -0.0222452 0 0 Z " fill="#FFFFFF" transform="translate(695.5,391.75)"/>
<path d="M0 0 C0.9178125 -0.00515625 1.835625 -0.0103125 2.78125 -0.015625 C6.65240132 0.36259093 9.52468138 1.23984857 12.25 4.0625 C14.82577541 8.57010697 14.69621491 13.14841233 14.5 18.25 C13.5 19.25 13.5 19.25 11.43359375 19.34765625 C7.96679688 19.29882812 7.96679688 19.29882812 4.5 19.25 C3.84 15.95 3.18 12.65 2.5 9.25 C0.85 9.25 -0.8 9.25 -2.5 9.25 C-3.80384209 14.2170175 -3.64715112 19.15524165 -3.625 24.25 C-3.62886719 25.13945312 -3.63273438 26.02890625 -3.63671875 26.9453125 C-3.63041234 31.17060791 -3.58073173 35.13292676 -2.5 39.25 C-1.51 39.58 -0.52 39.91 0.5 40.25 C1.49 39.755 1.49 39.755 2.5 39.25 C3.19093896 36.67048126 3.19093896 36.67048126 3.625 33.6875 C3.79257812 32.67558594 3.96015625 31.66367187 4.1328125 30.62109375 C4.25398437 29.83863281 4.37515625 29.05617188 4.5 28.25 C5.97906892 28.22310784 7.45827483 28.20365379 8.9375 28.1875 C9.76121094 28.17589844 10.58492187 28.16429687 11.43359375 28.15234375 C13.5 28.25 13.5 28.25 14.5 29.25 C14.96464705 34.82576463 14.30250321 40.3145336 11.5 45.25 C7.69243671 48.26769644 4.72411316 48.63460425 -0.0625 48.5625 C-1.17753906 48.55863281 -2.29257812 48.55476563 -3.44140625 48.55078125 C-8.1915114 48.08365724 -8.1915114 48.08365724 -10.5 46.25 C-14.44846177 40.10397806 -13.95809136 33.40591316 -13.89111328 26.2890625 C-13.87503577 24.2545262 -13.8910094 22.22197568 -13.91015625 20.1875 C-13.87184563 7.31513055 -13.87184563 7.31513055 -10.5 2.25 C-7.07163294 0.17012398 -3.95964583 -0.0222452 0 0 Z " fill="#FFFFFF" transform="translate(524.5,391.75)"/>
<path d="M0 0 C3.63 0 7.26 0 11 0 C12.65 3.63 14.3 7.26 16 11 C16.474375 9.55625 16.94875 8.1125 17.4375 6.625 C18.19397017 4.32269949 18.91608814 2.16782371 20 0 C23.63 0 27.26 0 31 0 C29.97858985 3.35976537 28.80427033 6.51930833 27.23828125 9.65625 C26.92439453 10.28660156 26.61050781 10.91695313 26.28710938 11.56640625 C25.6349787 12.86021259 24.97341762 14.14930669 24.30273438 15.43359375 C22.15661109 19.79722903 21.54900701 22.35210375 23 27 C24.24100604 29.9758343 25.62880968 32.86281017 27.0625 35.75 C27.80676236 37.26396958 28.54781392 38.77952315 29.28515625 40.296875 C29.61394775 40.96041992 29.94273926 41.62396484 30.28149414 42.30761719 C31 44 31 44 31 46 C27.37 46 23.74 46 20 46 C17.525 40.06 17.525 40.06 15 34 C13.68 37.96 12.36 41.92 11 46 C7.37 46 3.74 46 0 46 C0.75296873 42.23515634 1.29517229 40.05173525 2.91796875 36.78515625 C3.28470703 36.01623047 3.65144531 35.24730469 4.02929688 34.45507812 C4.80214354 32.85855677 5.58605575 31.2673454 6.38085938 29.68164062 C8.62471979 24.99737971 8.62471979 24.99737971 8.46484375 19.91796875 C7.73974609 18.47357422 7.73974609 18.47357422 7 17 C6.42315306 15.73497886 5.84771792 14.46931333 5.2734375 13.203125 C4.31940767 11.20363748 3.35527764 9.20922481 2.390625 7.21484375 C0 2.20256696 0 2.20256696 0 0 Z " fill="#FFFFFF" transform="translate(477,393)"/>
<path d="M0 0 C3.63 0 7.26 0 11 0 C12.10022749 2.20045498 12.26630205 3.73577646 12.5 6.17578125 C12.5825 7.00400391 12.665 7.83222656 12.75 8.68554688 C12.87375 9.98588867 12.87375 9.98588867 13 11.3125 C13.16442691 13.01714461 13.33103202 14.72158077 13.5 16.42578125 C13.5721875 17.18286377 13.644375 17.93994629 13.71875 18.7199707 C14.02211368 21.17927056 14.48692769 23.57653503 15 26 C15.11593506 25.28344238 15.23187012 24.56688477 15.35131836 23.82861328 C15.87667357 20.59351736 16.40702266 17.35925979 16.9375 14.125 C17.11990234 12.99707031 17.30230469 11.86914062 17.49023438 10.70703125 C17.66748047 9.63066406 17.84472656 8.55429687 18.02734375 7.4453125 C18.18968506 6.45031738 18.35202637 5.45532227 18.51928711 4.43017578 C19 2 19 2 20 0 C23.63 0 27.26 0 31 0 C29.88046178 5.90848375 28.75941198 11.81667792 27.63696289 17.72460938 C27.25536243 19.73429614 26.87417451 21.74406128 26.4934082 23.75390625 C25.94591072 26.64343662 25.39692834 29.53268151 24.84765625 32.421875 C24.6778273 33.31992859 24.50799835 34.21798218 24.33302307 35.14324951 C24.17293259 35.98381897 24.0128421 36.82438843 23.84790039 37.69042969 C23.70800186 38.42767273 23.56810333 39.16491577 23.42396545 39.92449951 C23.00766777 41.96246282 22.50448566 43.98205738 22 46 C17.71 46 13.42 46 9 46 C7.71576563 39.77085609 6.43408079 33.54119523 5.15478516 27.31103516 C4.71896777 25.19044722 4.28244658 23.0700038 3.84521484 20.94970703 C3.21788636 17.90695052 2.59306766 14.863688 1.96875 11.8203125 C1.77188599 10.86818878 1.57502197 9.91606506 1.37219238 8.93508911 C1.19200562 8.05432709 1.01181885 7.17356506 0.82617188 6.26611328 C0.66628784 5.48889923 0.50640381 4.71168518 0.3416748 3.91091919 C0 2 0 2 0 0 Z " fill="#FFFFFF" transform="translate(161,393)"/>
<path d="M0 0 C3.3 0 6.6 0 10 0 C10.19335938 1.03898437 10.38671875 2.07796875 10.5859375 3.1484375 C10.84892478 4.55729793 11.11194754 5.96615174 11.375 7.375 C11.50132812 8.05433594 11.62765625 8.73367188 11.7578125 9.43359375 C12.79177041 14.96526855 13.88647359 20.48382743 15 26 C15.11593506 25.2479126 15.23187012 24.4958252 15.35131836 23.72094727 C15.87581546 20.33412715 16.40657147 16.94831759 16.9375 13.5625 C17.11990234 12.37849609 17.30230469 11.19449219 17.49023438 9.97460938 C17.66748047 8.84990234 17.84472656 7.72519531 18.02734375 6.56640625 C18.18968506 5.52427979 18.35202637 4.48215332 18.51928711 3.40844727 C19 1 19 1 20 0 C23.00003445 -0.14177857 25.99757235 -0.04228771 29 0 C28.45465983 6.68638311 27.47298863 13.13279974 26.0625 19.6875 C24.49009655 27.2125231 23.2721339 34.68825548 22.39453125 42.32421875 C22 45 22 45 21 46 C18.81360547 46.07258946 16.62499611 46.08373783 14.4375 46.0625 C12.64119141 46.04896484 12.64119141 46.04896484 10.80859375 46.03515625 C9.88175781 46.02355469 8.95492187 46.01195312 8 46 C7.01004151 41.54075183 6.03205733 37.07908955 5.06420898 32.61499023 C4.73465842 31.10258569 4.40206959 29.59083936 4.06616211 28.07983398 C1.9823008 18.69467088 0.40295645 9.632027 0 0 Z " fill="#FFFFFF" transform="translate(1007,393)"/>
<path d="M0 0 C3.3 0 6.6 0 10 0 C10 4.62 10 9.24 10 14 C12.64 14 15.28 14 18 14 C18 15.98 18 17.96 18 20 C15.36 20 12.72 20 10 20 C10.33 30.89 10.66 41.78 11 53 C13.31 53 15.62 53 18 53 C18 55.64 18 58.28 18 61 C16.10489301 61.08160748 14.20875496 61.13946459 12.3125 61.1875 C10.72888672 61.23970703 10.72888672 61.23970703 9.11328125 61.29296875 C5.33716773 60.93762557 2.69949058 59.69949058 0 57 C-0.08858646 54.26105915 -0.11523479 51.5474673 -0.09765625 48.80859375 C-0.0962413 47.98875504 -0.09482635 47.16891632 -0.09336853 46.32423401 C-0.08775289 43.69528618 -0.07519779 41.06642227 -0.0625 38.4375 C-0.05748701 36.65950643 -0.05292376 34.88151154 -0.04882812 33.10351562 C-0.03777839 28.73564455 -0.02050331 24.36783652 0 20 C-1.65 20 -3.3 20 -5 20 C-5 18.02 -5 16.04 -5 14 C-3.35 14 -1.7 14 0 14 C0 9.38 0 4.76 0 0 Z " fill="#FFFFFF" transform="translate(371,379)"/>
<path d="M0 0 C3.3 0 6.6 0 10 0 C10 4.62 10 9.24 10 14 C12.64 14 15.28 14 18 14 C18 15.98 18 17.96 18 20 C15.36 20 12.72 20 10 20 C10.33 30.89 10.66 41.78 11 53 C13.31 53 15.62 53 18 53 C18 55.64 18 58.28 18 61 C16.08364783 61.05423638 14.16685075 61.09289963 12.25 61.125 C11.18265625 61.14820313 10.1153125 61.17140625 9.015625 61.1953125 C4.2920354 60.88938053 4.2920354 60.88938053 2 59 C0.23268514 53.98735975 -0.23783428 49.61036845 -0.1953125 44.31640625 C-0.1924826 43.61603745 -0.18965271 42.91566864 -0.18673706 42.19407654 C-0.17564885 39.9833683 -0.15056703 37.77308329 -0.125 35.5625 C-0.11495546 34.05274028 -0.1058322 32.54297412 -0.09765625 31.03320312 C-0.07574714 27.35533403 -0.04129758 23.6777084 0 20 C-1.65 20 -3.3 20 -5 20 C-5 18.02 -5 16.04 -5 14 C-3.35 14 -1.7 14 0 14 C0 9.38 0 4.76 0 0 Z " fill="#FFFFFF" transform="translate(1075,379)"/>
<path d="M0 0 C3.63 0 7.26 0 11 0 C11 21.78 11 43.56 11 66 C7.37 66 3.74 66 0 66 C0 44.22 0 22.44 0 0 Z " fill="#FFFFFF" transform="translate(596,373)"/>
<path d="M0 0 C3.63 0 7.26 0 11 0 C11 21.78 11 43.56 11 66 C7.37 66 3.74 66 0 66 C0 44.22 0 22.44 0 0 Z " fill="#FFFFFF" transform="translate(578,373)"/>
<path d="M0 0 C3.3 0 6.6 0 10 0 C10 21.78 10 43.56 10 66 C6.37 66 2.74 66 -1 66 C-1.02312659 57.54232666 -1.0409167 49.08466644 -1.05181217 40.62696934 C-1.05704031 36.70011342 -1.06413669 32.77327906 -1.07543945 28.84643555 C-1.0862708 25.05985743 -1.09227736 21.2733001 -1.09487724 17.48670769 C-1.09673105 16.03895681 -1.10035081 14.59120712 -1.10573006 13.14346504 C-1.11294367 11.12242865 -1.11340808 9.10137152 -1.11352539 7.08032227 C-1.115746 5.92782486 -1.11796661 4.77532745 -1.12025452 3.58790588 C-1 1 -1 1 0 0 Z " fill="#FFFFFF" transform="translate(129,373)"/>
<path d="M0 0 C3.63 0 7.26 0 11 0 C11 15.18 11 30.36 11 46 C7.37 46 3.74 46 0 46 C0 30.82 0 15.64 0 0 Z " fill="#FFFFFF" transform="translate(888,393)"/>
<path d="M0 0 C3.3 0 6.6 0 10 0 C10 15.18 10 30.36 10 46 C6.7 46 3.4 46 0 46 C0 30.82 0 15.64 0 0 Z " fill="#FFFFFF" transform="translate(1098,393)"/>
<path d="M0 0 C3.3 0 6.6 0 10 0 C10 15.18 10 30.36 10 46 C6.7 46 3.4 46 0 46 C0 30.82 0 15.64 0 0 Z " fill="#FFFFFF" transform="translate(351,393)"/>
<path d="M0 0 C3.3 0 6.6 0 10 0 C10 15.18 10 30.36 10 46 C6.7 46 3.4 46 0 46 C0 30.82 0 15.64 0 0 Z " fill="#FFFFFF" transform="translate(147,393)"/>
<path d="M0 0 C3.63 0 7.26 0 11 0 C11 3.63 11 7.26 11 11 C7.37 11 3.74 11 0 11 C0 7.37 0 3.74 0 0 Z " fill="#FFFFFF" transform="translate(888,376)"/>
<path d="M0 0 C3.3 0 6.6 0 10 0 C10 3.63 10 7.26 10 11 C6.7 11 3.4 11 0 11 C0 7.37 0 3.74 0 0 Z " fill="#FFFFFF" transform="translate(1098,376)"/>
<path d="M0 0 C3.3 0 6.6 0 10 0 C10 3.63 10 7.26 10 11 C6.7 11 3.4 11 0 11 C0 7.37 0 3.74 0 0 Z " fill="#FFFFFF" transform="translate(351,376)"/>
<path d="M0 0 C3.3 0 6.6 0 10 0 C10 3.63 10 7.26 10 11 C6.7 11 3.4 11 0 11 C0 7.37 0 3.74 0 0 Z " fill="#FFFFFF" transform="translate(147,376)"/>
</svg>
